# xmcd CD database file
#
# Track frame offsets:
#	150
#	19590
#	42890
#	59008
#	74385
#	97710
#	111433
#	128608
#	147945
#	164883
#	180468
#	192713
#	211250
#
# Disc length: 3082 seconds
#
# Revision: 0
# Processed by: cddbd v1.5.2PL0 Copyright (c) Steve Scherf et al.
# Submitted via: jetAudio 7
#
DISCID=bf0c080d
DTITLE=未知演出者 - 未知專輯
DYEAR=1900
DGENRE=未知?容類型
TTITLE0=曲目 1
TTITLE1=曲目 2
TTITLE2=曲目 3
TTITLE3=曲目 4
TTITLE4=曲目 5
TTITLE5=曲目 6
TTITLE6=曲目 7
TTITLE7=曲目 8
TTITLE8=曲目 9
TTITLE9=曲目 10
TTITLE10=曲目 11
TTITLE11=曲目 12
TTITLE12=曲目 13
EXTD=
EXTT0=
EXTT1=
EXTT2=
EXTT3=
EXTT4=
EXTT5=
EXTT6=
EXTT7=
EXTT8=
EXTT9=
EXTT10=
EXTT11=
EXTT12=
PLAYORDER=
